<svg width="709" height="965" viewBox="0 0 709 965" fill="none" xmlns="http://www.w3.org/2000/svg">
<rect width="709" height="965" rx="20" fill="white"/>
<path d="M168.832 664.727V697.734H181.527V709.355H168.832V754.375H154.77V664.727H168.832ZM100.277 733.867V671.758H114.34V692.949H130.551V671.758H144.516V733.867H100.277ZM114.34 722.441H130.551V703.789H114.34V722.441ZM255.258 664.727V697.344H267.953V708.77H255.258V754.57H241.195V664.727H255.258ZM187.582 733.086V672.93H229.672V684.258H201.645V721.465C213.656 721.367 224.105 720.684 235.434 718.73L236.898 730.449C223.08 732.793 210.727 733.086 195.297 733.086H187.582ZM299.496 670.586C313.754 670.537 324.496 679.863 324.594 692.852C324.496 705.889 313.754 715.166 299.496 715.117C285.385 715.166 274.398 705.889 274.398 692.852C274.398 679.863 285.385 670.537 299.496 670.586ZM270.98 725.371C286.752 725.42 308.676 725.176 327.621 722.539L328.695 732.695C309.066 736.504 288.07 736.699 272.543 736.699L270.98 725.371ZM288.363 692.852C288.363 699.541 293.246 703.057 299.496 703.008C305.893 703.057 310.824 699.541 310.922 692.852C310.824 686.309 305.941 682.695 299.496 682.695C293.197 682.695 288.363 686.309 288.363 692.852ZM332.406 754.57V664.727H346.371V754.57H332.406ZM403.598 670.879C417.318 670.83 427.426 683.281 427.523 702.91C427.426 722.832 417.318 735.234 403.598 735.234C389.682 735.234 379.477 722.832 379.574 702.91C379.477 683.281 389.682 670.83 403.598 670.879ZM393.246 702.91C393.148 715.947 397.348 722.441 403.598 722.441C409.896 722.441 413.998 715.947 414.047 702.91C413.998 690.117 409.896 683.525 403.598 683.574C397.348 683.525 393.148 690.117 393.246 702.91ZM436.41 754.375V664.727H450.473V697.93H463.168V709.551H450.473V754.375H436.41ZM516.781 672.539V683.77H509.359V721.465C512.631 721.221 515.854 720.879 518.93 720.488L519.613 730.547C501.498 733.818 481.332 734.209 466.098 734.258L464.633 722.93C467.611 722.93 470.834 722.93 474.203 722.881V683.77H466.879V672.539H516.781ZM487.777 722.637L495.883 722.344V683.77H487.777V722.637ZM522.836 754.375V664.727H536.898V698.32H549.594V709.648H536.898V754.375H522.836ZM625.473 710.332V721.367H561.605V670.977H624.789V682.305H575.961V690.508H622.641V701.445H575.961V710.332H625.473ZM552.23 744.316V732.988H634.164V744.316H552.23ZM658.871 737.578L650.18 765.801H638.754L643.441 737.578H658.871ZM443.051 829.668C443.002 840.801 448.568 851.836 463.559 856.523L456.137 867.559C446.518 864.385 440.023 858.33 436.166 850.566C432.162 859.014 425.229 865.654 415.023 869.023L407.211 857.988C423.031 853.203 428.793 841.24 428.891 829.57V820.293H443.051V829.668ZM421.664 902.91V873.809H435.922V891.68H483.48V902.91H421.664ZM466.391 880.254V814.824H480.453V840.215H492.074V852.031H480.453V880.254H466.391ZM573.715 825.469V836.602H498.812V825.469H529.184V815.508H543.246V825.469H573.715ZM495.492 895.684V884.453H529.184V874.834C514.193 873.369 505.16 867.119 505.16 857.402C505.16 846.416 517.074 839.775 536.215 839.824C555.014 839.775 567.123 846.416 567.074 857.402C567.123 867.07 557.992 873.369 543.246 874.834V884.453H577.426V895.684H495.492ZM519.711 857.402C519.662 862.139 525.18 864.043 536.215 864.043C546.957 864.043 552.621 862.139 552.621 857.402C552.621 852.715 546.957 850.762 536.215 850.762C525.18 850.762 519.662 852.715 519.711 857.402ZM663.852 883.086V894.512H581.918V883.086H615.902V866.484H629.77V883.086H663.852ZM584.164 858.574C605.209 856.279 614.193 846.367 615.463 837.578H588.852V826.445H615.902V815.605H629.77V826.445H656.918V837.578H630.209C631.43 846.367 640.414 856.279 661.605 858.574L656.527 869.609C640.121 867.656 628.842 861.211 622.787 852.471C616.781 861.211 605.6 867.656 589.242 869.609L584.164 858.574Z" fill="black"/>
<path fill-rule="evenodd" clip-rule="evenodd" d="M87.324 255.435C83.6689 257.021 81.3038 260.625 81.3038 264.609V285.372H144.289V230.723L87.324 255.435ZM320.844 255.732H269.711V285.372H330.844V265.732C330.844 260.209 326.366 255.732 320.844 255.732Z" fill="url(#paint0_linear_108_231)"/>
<path fill-rule="evenodd" clip-rule="evenodd" d="M167 177C161.477 177 157 181.477 157 187V216.829H134.289C128.766 216.829 124.289 221.306 124.289 226.829V285.372H50C44.4772 285.372 40 289.849 40 295.372V533.608H124.289H269.711H354V285.372H269.711V226.829C269.711 221.306 265.234 216.829 259.711 216.829H233V187C233 181.477 228.523 177 223 177H167Z" fill="url(#paint1_linear_108_231)"/>
<rect x="70" y="307" width="38" height="35" rx="10" fill="white"/>
<rect x="70" y="364" width="38" height="35" rx="10" fill="white"/>
<rect x="70" y="421" width="38" height="35" rx="10" fill="white"/>
<rect x="123" y="307" width="38" height="35" rx="10" fill="white"/>
<rect x="152" y="240" width="38" height="35" rx="10" fill="white"/>
<rect x="123" y="364" width="38" height="35" rx="10" fill="white"/>
<rect x="123" y="421" width="38" height="35" rx="10" fill="white"/>
<rect x="176" y="307" width="38" height="35" rx="10" fill="white"/>
<rect x="205" y="240" width="38" height="35" rx="10" fill="white"/>
<rect x="176" y="364" width="38" height="35" rx="10" fill="white"/>
<rect x="176" y="421" width="38" height="35" rx="10" fill="white"/>
<rect x="229" y="307" width="38" height="35" rx="10" fill="white"/>
<rect x="229" y="364" width="38" height="35" rx="10" fill="white"/>
<rect x="229" y="421" width="38" height="35" rx="10" fill="white"/>
<rect x="282" y="307" width="38" height="35" rx="10" fill="white"/>
<rect x="282" y="364" width="38" height="35" rx="10" fill="white"/>
<rect x="282" y="421" width="38" height="35" rx="10" fill="white"/>
<path fill-rule="evenodd" clip-rule="evenodd" d="M399.324 255.435C395.669 257.021 393.304 260.625 393.304 264.609V285.372H456.289V230.723L399.324 255.435ZM632.844 255.732H581.711V285.372H642.844V265.732C642.844 260.209 638.366 255.732 632.844 255.732Z" fill="url(#paint2_linear_108_231)"/>
<path fill-rule="evenodd" clip-rule="evenodd" d="M479 177C473.477 177 469 181.477 469 187V216.829H446.289C440.766 216.829 436.289 221.306 436.289 226.829V285.372H352V533.608H436.289H581.711H666V295.372C666 289.849 661.523 285.372 656 285.372H581.711V226.829C581.711 221.306 577.234 216.829 571.711 216.829H545V187C545 181.477 540.523 177 535 177H479Z" fill="url(#paint3_linear_108_231)"/>
<rect x="382" y="307" width="38" height="35" rx="10" fill="white"/>
<rect x="382" y="364" width="38" height="35" rx="10" fill="white"/>
<rect x="382" y="421" width="38" height="35" rx="10" fill="white"/>
<rect x="435" y="307" width="38" height="35" rx="10" fill="white"/>
<rect x="464" y="240" width="38" height="35" rx="10" fill="white"/>
<rect x="435" y="364" width="38" height="35" rx="10" fill="white"/>
<rect x="435" y="421" width="38" height="35" rx="10" fill="white"/>
<rect x="488" y="307" width="38" height="35" rx="10" fill="white"/>
<rect x="517" y="240" width="38" height="35" rx="10" fill="white"/>
<rect x="488" y="364" width="38" height="35" rx="10" fill="white"/>
<rect x="488" y="421" width="38" height="35" rx="10" fill="white"/>
<rect x="541" y="307" width="38" height="35" rx="10" fill="white"/>
<rect x="541" y="364" width="38" height="35" rx="10" fill="white"/>
<rect x="541" y="421" width="38" height="35" rx="10" fill="white"/>
<rect x="594" y="307" width="38" height="35" rx="10" fill="white"/>
<rect x="594" y="364" width="38" height="35" rx="10" fill="white"/>
<rect x="594" y="421" width="38" height="35" rx="10" fill="white"/>
<defs>
<linearGradient id="paint0_linear_108_231" x1="196.074" y1="230.723" x2="195.611" y2="358.546" gradientUnits="userSpaceOnUse">
<stop stop-color="#828282"/>
<stop offset="1" stop-color="#FFF9E9"/>
</linearGradient>
<linearGradient id="paint1_linear_108_231" x1="197" y1="177" x2="197" y2="533.608" gradientUnits="userSpaceOnUse">
<stop stop-color="#A6A6A6"/>
<stop offset="1" stop-color="#FFF9E9"/>
</linearGradient>
<linearGradient id="paint2_linear_108_231" x1="508.074" y1="230.723" x2="507.611" y2="358.546" gradientUnits="userSpaceOnUse">
<stop stop-color="#828282"/>
<stop offset="1" stop-color="#FFF9E9"/>
</linearGradient>
<linearGradient id="paint3_linear_108_231" x1="509" y1="177" x2="509" y2="533.608" gradientUnits="userSpaceOnUse">
<stop stop-color="#A6A6A6"/>
<stop offset="1" stop-color="#FFF9E9"/>
</linearGradient>
</defs>
</svg>
