<svg width="709" height="965" viewBox="0 0 709 965" fill="none" xmlns="http://www.w3.org/2000/svg">
<rect width="709" height="965" rx="20" fill="white"/>
<path d="M243.336 674.785V685.82H225.953C226.002 695.244 231.617 705.498 246.559 710.039L239.82 720.879C229.957 718.096 223.17 712.285 219.117 704.912C215.162 712.92 208.277 719.219 198.023 722.246L191.285 711.309C206.227 706.914 211.891 696.172 211.891 685.82H194.605V674.785H211.891V665.312H226.051V674.785H243.336ZM207.984 752.91V725.566H222.047V741.68H270.094V752.91H207.984ZM240.406 701.738V690.508H254.078V664.824H268.043V731.133H254.078V701.738H240.406ZM354.469 664.824V730.156H340.504V709.844H320.826C316.48 714.189 310.426 716.826 303.688 716.777C290.064 716.826 279.566 706.816 279.664 693.438C279.566 679.814 290.064 669.902 303.688 669.902C310.426 669.902 316.529 672.539 320.875 676.934H340.504V664.824H354.469ZM292.945 693.438C292.945 700.469 297.389 704.326 303.688 704.375C309.547 704.326 314.137 700.469 314.137 693.438C314.137 686.309 309.547 682.354 303.688 682.402C297.389 682.354 292.945 686.309 292.945 693.438ZM294.41 752.91V723.613H308.473V741.68H356.52V752.91H294.41ZM326.93 688.066C327.32 689.775 327.516 691.582 327.516 693.438C327.516 695.244 327.32 696.953 326.93 698.613H340.504V688.066H326.93ZM429.176 719.219C447.926 719.121 459.645 725.615 459.645 736.699C459.645 747.93 447.926 754.521 429.176 754.57C410.084 754.521 398.17 747.93 398.219 736.699C398.17 725.615 410.084 719.121 429.176 719.219ZM389.723 712.676V670.391H403.59V681.035H419.508V670.391H433.57V712.676H389.723ZM403.59 701.738H419.508V691.777H403.59V701.738ZM412.281 736.699C412.232 741.436 418.043 743.633 429.176 743.633C440.211 743.633 445.729 741.436 445.777 736.699C445.729 732.012 440.211 730.01 429.176 729.961C418.043 730.01 412.232 732.012 412.281 736.699ZM444.703 717.266V664.727H458.766V685.039H470.387V696.66H458.766V717.266H444.703ZM524.781 672.539V683.77H517.359V721.465C520.631 721.221 523.854 720.879 526.93 720.488L527.613 730.547C509.498 733.818 489.332 734.209 474.098 734.258L472.633 722.93C475.611 722.93 478.834 722.93 482.203 722.881V683.77H474.879V672.539H524.781ZM495.777 722.637L503.883 722.344V683.77H495.777V722.637ZM530.836 754.375V664.727H544.898V698.32H557.594V709.648H544.898V754.375H530.836ZM637.965 664.727V754.375H624.684V664.727H637.965ZM558.18 727.422C571.559 719.121 575.709 703.105 575.66 688.262V684.648H561.793V673.418H601.93V684.648H589.234V688.262C589.186 702.959 593.092 717.852 606.422 725.469L598.316 735.723C590.553 731.23 585.572 723.809 582.594 714.873C579.566 724.639 574.439 732.939 566.578 737.773L558.18 727.422ZM595.68 706.23V695H606.422V665.996H619.508V750.371H606.422V706.23H595.68ZM666.871 737.578L658.18 765.801H646.754L651.441 737.578H666.871ZM451.051 829.668C451.002 840.801 456.568 851.836 471.559 856.523L464.137 867.559C454.518 864.385 448.023 858.33 444.166 850.566C440.162 859.014 433.229 865.654 423.023 869.023L415.211 857.988C431.031 853.203 436.793 841.24 436.891 829.57V820.293H451.051V829.668ZM429.664 902.91V873.809H443.922V891.68H491.48V902.91H429.664ZM474.391 880.254V814.824H488.453V840.215H500.074V852.031H488.453V880.254H474.391ZM581.715 825.469V836.602H506.812V825.469H537.184V815.508H551.246V825.469H581.715ZM503.492 895.684V884.453H537.184V874.834C522.193 873.369 513.16 867.119 513.16 857.402C513.16 846.416 525.074 839.775 544.215 839.824C563.014 839.775 575.123 846.416 575.074 857.402C575.123 867.07 565.992 873.369 551.246 874.834V884.453H585.426V895.684H503.492ZM527.711 857.402C527.662 862.139 533.18 864.043 544.215 864.043C554.957 864.043 560.621 862.139 560.621 857.402C560.621 852.715 554.957 850.762 544.215 850.762C533.18 850.762 527.662 852.715 527.711 857.402ZM671.852 883.086V894.512H589.918V883.086H623.902V866.484H637.77V883.086H671.852ZM592.164 858.574C613.209 856.279 622.193 846.367 623.463 837.578H596.852V826.445H623.902V815.605H637.77V826.445H664.918V837.578H638.209C639.43 846.367 648.414 856.279 669.605 858.574L664.527 869.609C648.121 867.656 636.842 861.211 630.787 852.471C624.781 861.211 613.6 867.656 597.242 869.609L592.164 858.574Z" fill="black"/>
<path d="M495.335 444.89C588.75 388.917 614.141 278.625 674 299.623V525H35V474.67C72.9814 449.769 313.104 375.397 364.527 396.824C430.615 424.362 435.173 480.94 495.335 444.89Z" fill="url(#paint0_linear_108_232)"/>
<path d="M296.716 329.535C226.528 189.704 88.3272 221.19 28 254.411V611H672V531.369C633.721 491.97 542.227 485.278 472.515 495.5C416.571 503.703 384.451 504.324 296.716 329.535Z" fill="url(#paint1_linear_108_232)"/>
<defs>
<linearGradient id="paint0_linear_108_232" x1="354.5" y1="281.666" x2="354.5" y2="525.001" gradientUnits="userSpaceOnUse">
<stop stop-color="#041DFF"/>
<stop offset="1" stop-color="white"/>
</linearGradient>
<linearGradient id="paint1_linear_108_232" x1="350" y1="226" x2="350" y2="611" gradientUnits="userSpaceOnUse">
<stop stop-color="#041DFF"/>
<stop offset="1" stop-color="white"/>
</linearGradient>
</defs>
</svg>
