<svg width="1728" height="498" viewBox="0 0 1728 498" fill="none" xmlns="http://www.w3.org/2000/svg">
<path d="M226 56.6994C114.612 56.6994 -13 27.6292 -13 27.6292V44.7194V418C-13 462.183 22.8172 498 67 498H1661C1705.18 498 1741 462.183 1741 418V34.9177C1741 34.9177 1712.5 62.0777 1674 56.6994C1597.86 46.0629 1523.5 0 1399.5 0C1253 0 1197.5 56.6994 1079 56.6994C899.5 56.6994 793 0 617 0C441 0 326.5 56.6993 226 56.6994Z" fill="#001AFF"/>
<rect width="1785" height="261.636" fill="#001AFF"/>
<path d="M226 62.8551C114.612 62.8551 -13 37.8694 -13 37.8694V52.5584V82.4665C-13 82.4665 114.612 107.452 226 107.452C326.5 107.452 441 58.7193 617 58.7193C793 58.7193 899.5 107.452 1079 107.452C1197.5 107.452 1253 58.7193 1399.5 58.7193C1523.5 58.7193 1597.86 98.3101 1674 107.452C1712.5 112.075 1741 88.7309 1741 88.7309V44.1339C1741 44.1339 1712.5 67.4778 1674 62.8551C1597.86 53.7131 1523.5 14.1223 1399.5 14.1223C1253 14.1223 1197.5 62.8551 1079 62.8551C899.5 62.8551 793 14.1223 617 14.1223C441 14.1223 326.5 62.855 226 62.8551Z" fill="white"/>
</svg>
