<svg width="709" height="965" viewBox="0 0 709 965" fill="none" xmlns="http://www.w3.org/2000/svg">
<rect width="709" height="965" rx="20" fill="white"/>
<path d="M218.148 696.164C218.051 709.592 224.35 725.314 239.633 732.297L231.82 743.332C221.957 738.889 215.219 730.295 211.264 720.09C207.357 731.418 200.326 740.891 190.023 745.676L181.918 734.543C197.494 727.365 203.891 710.812 203.891 696.164V692.648H185.629V681.223H235.531V692.648H218.148V696.164ZM241.195 762.375V672.727H255.258V706.32H267.953V717.941H255.258V762.375H241.195ZM346.469 672.824V738.156H332.504V717.844H312.826C308.48 722.189 302.426 724.826 295.688 724.777C282.064 724.826 271.566 714.816 271.664 701.438C271.566 687.814 282.064 677.902 295.688 677.902C302.426 677.902 308.529 680.539 312.875 684.934H332.504V672.824H346.469ZM284.945 701.438C284.945 708.469 289.389 712.326 295.688 712.375C301.547 712.326 306.137 708.469 306.137 701.438C306.137 694.309 301.547 690.354 295.688 690.402C289.389 690.354 284.945 694.309 284.945 701.438ZM286.41 760.91V731.613H300.473V749.68H348.52V760.91H286.41ZM318.93 696.066C319.32 697.775 319.516 699.582 319.516 701.438C319.516 703.244 319.32 704.953 318.93 706.613H332.504V696.066H318.93ZM455.062 672.727V762.375H440.805V672.727H455.062ZM379.379 736.301C402.182 725.559 411.752 712.277 413.754 692.941H384.457V682.004H428.109C428.061 709.641 419.32 732.15 386.703 747.434L379.379 736.301ZM499.301 686.789C499.301 697.189 504.672 707.346 519.223 711.691L511.801 722.531C502.475 719.602 496.127 713.889 492.367 706.564C488.51 715.061 481.82 721.75 471.762 725.07L464.145 714.133C479.574 709.104 485.092 697.189 485.141 685.324V677.609H499.301V686.789ZM476.645 744.699C476.596 733.664 488.607 727.072 507.602 727.121C526.254 727.072 538.07 733.664 538.07 744.699C538.07 755.93 526.254 762.473 507.602 762.375C488.607 762.473 476.596 755.93 476.645 744.699ZM490.707 744.699C490.658 749.436 496.469 751.389 507.602 751.438C518.637 751.389 524.154 749.436 524.203 744.699C524.154 740.305 518.637 738.01 507.602 738.059C496.469 738.01 490.658 740.305 490.707 744.699ZM523.129 725.461V672.727H537.191V692.941H548.812V704.562H537.191V725.461H523.129ZM603.402 681.613V692.648H586.068C586.459 700.998 592.367 709.738 606.723 713.352L600.18 724.094C590.17 721.652 583.334 716.379 579.232 709.592C575.326 717.404 568.393 723.557 557.895 726.438L551.352 715.5C565.707 711.545 571.615 701.975 571.957 692.648H554.672V681.613H571.957V672.434H586.117V681.613H603.402ZM566.195 745.09C566.195 734.201 578.109 728.146 597.152 728.098C616.439 728.146 628.354 734.201 628.402 745.09C628.354 756.076 616.439 762.473 597.152 762.375C578.109 762.473 566.195 756.076 566.195 745.09ZM580.16 745.09C580.16 749.533 585.971 751.779 597.152 751.828C608.773 751.779 614.34 749.533 614.438 745.09C614.34 740.744 608.773 738.742 597.152 738.84C585.971 738.742 580.16 740.744 580.16 745.09ZM600.766 707.492V696.262H614.145V672.727H628.109V726.926H614.145V707.492H600.766ZM658.871 745.578L650.18 773.801H638.754L643.441 745.578H658.871ZM443.051 837.668C443.002 848.801 448.568 859.836 463.559 864.523L456.137 875.559C446.518 872.385 440.023 866.33 436.166 858.566C432.162 867.014 425.229 873.654 415.023 877.023L407.211 865.988C423.031 861.203 428.793 849.24 428.891 837.57V828.293H443.051V837.668ZM421.664 910.91V881.809H435.922V899.68H483.48V910.91H421.664ZM466.391 888.254V822.824H480.453V848.215H492.074V860.031H480.453V888.254H466.391ZM573.715 833.469V844.602H498.812V833.469H529.184V823.508H543.246V833.469H573.715ZM495.492 903.684V892.453H529.184V882.834C514.193 881.369 505.16 875.119 505.16 865.402C505.16 854.416 517.074 847.775 536.215 847.824C555.014 847.775 567.123 854.416 567.074 865.402C567.123 875.07 557.992 881.369 543.246 882.834V892.453H577.426V903.684H495.492ZM519.711 865.402C519.662 870.139 525.18 872.043 536.215 872.043C546.957 872.043 552.621 870.139 552.621 865.402C552.621 860.715 546.957 858.762 536.215 858.762C525.18 858.762 519.662 860.715 519.711 865.402ZM663.852 891.086V902.512H581.918V891.086H615.902V874.484H629.77V891.086H663.852ZM584.164 866.574C605.209 864.279 614.193 854.367 615.463 845.578H588.852V834.445H615.902V823.605H629.77V834.445H656.918V845.578H630.209C631.43 854.367 640.414 864.279 661.605 866.574L656.527 877.609C640.121 875.656 628.842 869.211 622.787 860.471C616.781 869.211 605.6 875.656 589.242 877.609L584.164 866.574Z" fill="black"/>
<circle cx="486.5" cy="230.5" r="80.5" fill="url(#paint0_linear_108_234)"/>
<path d="M490 57L490 125" stroke="#FF6A6A" stroke-width="20" stroke-linecap="round"/>
<path d="M565 149.764L612.765 102" stroke="#FF6A6A" stroke-width="20" stroke-linecap="round"/>
<path d="M381.488 359.193L429.253 311.429" stroke="#FF6A6A" stroke-width="20" stroke-linecap="round"/>
<path d="M551 312L598.765 359.765" stroke="#FF6A6A" stroke-width="20" stroke-linecap="round"/>
<path d="M358 101L405.765 148.765" stroke="#FF6A6A" stroke-width="20" stroke-linecap="round"/>
<path d="M598 231H666" stroke="#FF6A6A" stroke-width="20" stroke-linecap="round"/>
<path d="M314 231H381" stroke="#FF6A6A" stroke-width="20" stroke-linecap="round"/>
<path fill-rule="evenodd" clip-rule="evenodd" d="M178.093 534.25C162.549 544.83 143.515 551.056 122.956 551.056C70.5133 551.056 28 510.551 28 460.586C28 410.62 70.5133 370.116 122.956 370.116C132.235 370.116 141.203 371.384 149.68 373.748C148.333 367.474 147.63 361.013 147.63 354.414C147.63 294.539 205.541 246 276.979 246C347.972 246 405.606 293.935 406.322 353.296C412.427 352.555 418.671 352.171 425.021 352.171C496.459 352.171 554.37 400.71 554.37 460.586C554.37 520.461 496.459 569 425.021 569C391.764 569 361.439 558.481 338.523 541.195C318.257 558.481 291.437 569 262.025 569C228.858 569 198.987 555.623 178.093 534.25Z" fill="url(#paint1_linear_108_234)"/>
<path d="M490 341L490 409" stroke="#FF6A6A" stroke-width="20" stroke-linecap="round"/>
<defs>
<linearGradient id="paint0_linear_108_234" x1="486.5" y1="150" x2="486.5" y2="311" gradientUnits="userSpaceOnUse">
<stop stop-color="#FF0000"/>
<stop offset="1" stop-color="#FFF9E9"/>
</linearGradient>
<linearGradient id="paint1_linear_108_234" x1="303.896" y1="246" x2="303.896" y2="569" gradientUnits="userSpaceOnUse">
<stop stop-color="#A0A0A0"/>
<stop offset="1" stop-color="#FFF9E9"/>
</linearGradient>
</defs>
</svg>
