<svg width="1728" height="1132" viewBox="0 0 1728 1132" fill="none" xmlns="http://www.w3.org/2000/svg">
<path fill-rule="evenodd" clip-rule="evenodd" d="M38 0C10.3858 0 -12 22.3858 -12 50V1050.61C-12 1059.96 -9.43292 1068.72 -4.96507 1076.2H-12L-12 1131.85L-11.9856 1131.83C-11.9856 1131.83 40.0165 1133.97 77.5786 1122.21C115.141 1110.45 155.597 1101.91 213.372 1101.91C271.148 1101.91 314.023 1112.8 337.62 1120.08C373.116 1131.03 417.014 1131.8 425.665 1131.84H425.241C425.241 1131.84 477.243 1133.98 514.805 1122.22C552.367 1110.46 592.823 1101.91 650.599 1101.91C708.374 1101.91 751.249 1112.8 774.846 1120.08C811.564 1131.41 857.273 1131.84 863.657 1131.84C865.522 1131.92 916.301 1133.77 953.169 1122.22C990.731 1110.46 1031.19 1101.92 1088.96 1101.92C1146.74 1101.92 1189.61 1112.81 1213.21 1120.09C1248.7 1131.04 1292.6 1131.81 1301.25 1131.85H1300.83C1300.83 1131.85 1352.83 1133.99 1390.39 1122.23C1427.96 1110.47 1468.41 1101.92 1526.19 1101.92C1583.96 1101.92 1626.84 1112.81 1650.44 1120.09C1690 1132.3 1740 1131.85 1740 1131.85V1076.2H1723.97C1728.43 1068.72 1731 1059.96 1731 1050.61V50C1731 22.3858 1708.61 0 1681 0H38Z" fill="#041DFF"/>
</svg>
